<?xml version="1.0" encoding="utf-8"?>
<!-- Generator: Adobe Illustrator 16.0.0, SVG Export Plug-In . SVG Version: 6.00 Build 0)  -->
<!DOCTYPE svg PUBLIC "-//W3C//DTD SVG 1.1//EN" "http://www.w3.org/Graphics/SVG/1.1/DTD/svg11.dtd">
<svg version="1.1" id="Layer_1" xmlns="http://www.w3.org/2000/svg" xmlns:xlink="http://www.w3.org/1999/xlink" x="0px" y="0px"
	 width="300px" height="100px" viewBox="0 0 300 100" enable-background="new 0 0 300 100" xml:space="preserve">
<g>
	<path fill-rule="evenodd" clip-rule="evenodd" stroke="#000000" stroke-miterlimit="10" d="M165.31,19.25
		c0.9,0.227,1.78,0.412,2.69,0.64c7.398,2.048,12.497,9.192,12.017,16.768c-0.521,7.497-6.513,14.094-13.966,15.327
		c-0.671,0.114-1.33,0.178-2.082,0.283c4.305,8.235,8.587,16.301,12.842,24.382c-0.045,0.034-0.115,0.071-0.142,0.107
		c-1.13-2.103-2.278-4.118-3.423-6.205c-3.229-5.829-6.455-11.725-9.679-17.58c-0.21-0.402-0.317-0.846-0.445-1.185
		c1.782-0.367,3.451-0.547,5.044-1.061c6.668-2.037,11.512-8.432,11.148-15.663c-0.389-7.637-5.83-13.639-13.256-14.88
		c-0.976-0.162-2.003-0.236-3.005-0.255c-7.835-0.014-15.658-0.007-23.498-0.008c-0.284,0-0.608-0.012-0.917-0.036
		c0-0.216,0.001-0.407,0-0.634C147.518,19.251,156.412,19.251,165.31,19.25z"/>
	<path fill-rule="evenodd" clip-rule="evenodd" stroke="#000000" stroke-miterlimit="10" d="M138.639,22.507
		c0.201,0,0.377,0,0.639,0c-0.077,18.953-0.154,37.824-0.273,56.692c-0.015,0-0.056,0.001-0.096,0
		c-0.059-11.189-0.08-22.393-0.156-33.614c0-0.232-0.064-0.509-0.113-0.735C138.639,37.421,138.639,29.971,138.639,22.507z"/>
	<path fill-rule="evenodd" clip-rule="evenodd" d="M158.092,31.597c0.65-1.139,1.25-2.165,1.834-3.231
		c0.635-1.079,1.266-2.178,1.924-3.266c0.111-0.185,0.49-0.428,0.666-0.332c3.25,1.236,5.508,3.489,6.825,6.829
		C165.573,31.597,161.903,31.597,158.092,31.597z"/>
	<path fill-rule="evenodd" clip-rule="evenodd" d="M150.704,26.892c2.873-2.385,6.011-3.303,9.75-2.736
		c-1.923,3.301-3.772,6.496-5.661,9.792C153.398,31.549,152.064,29.273,150.704,26.892z"/>
	<path fill-rule="evenodd" clip-rule="evenodd" d="M166.096,44.285c-2.059,2.232-6.572,3.532-9.683,2.758
		c1.861-3.234,3.706-6.456,5.63-9.74C163.442,39.706,164.742,41.991,166.096,44.285z"/>
	<path fill-rule="evenodd" clip-rule="evenodd" d="M147.593,39.628c3.696,0,7.351,0,11.075,0c-0.096,0.248-0.152,0.407-0.252,0.587
		c-1.137,1.959-2.279,3.916-3.395,5.877c-0.178,0.368-0.328,0.587-0.818,0.413c-3.165-1.273-5.363-3.495-6.638-6.631
		C147.554,39.813,147.568,39.74,147.593,39.628z"/>
	<path fill-rule="evenodd" clip-rule="evenodd" d="M149.486,28.131c1.907,3.276,3.731,6.464,5.643,9.769
		c-0.955-0.001-1.744,0-2.55,0c-1.683,0-3.323,0-4.973,0c-0.348,0-0.645,0.053-0.706-0.447
		C146.381,34.005,147.292,30.981,149.486,28.131z"/>
	<path fill-rule="evenodd" clip-rule="evenodd" d="M169.838,33.409c0.618,3.599-0.174,6.768-2.513,9.71
		c-1.896-3.244-3.729-6.448-5.587-9.71C164.473,33.409,167.123,33.41,169.838,33.409z"/>
</g>
<text transform="matrix(1 0 0 1 171.7734 60.9414)"><tspan x="0" y="0" font-family="'HandTypeWriter'" font-size="8.1677"> </tspan><tspan x="0" y="9.802" font-family="'HandTypeWriter'" font-size="8.1677">  </tspan></text>
<g>
	<path d="M124.078,79.92v-1.178l0.034-0.203c-0.023-0.041-0.034-0.084-0.034-0.133c0-0.42,0.046-0.869,0.138-1.348
		c0.668-1.439,1.497-2.16,2.487-2.16c0.806,0.127,1.347,0.262,1.623,0.404c0.453,0.258,0.822,0.584,1.106,0.977
		c0.384-0.4,0.902-0.703,1.553-0.908c0.565-0.045,0.898-0.078,0.999-0.098c0.198,0.02,0.36,0.029,0.486,0.029h0.516
		c0.6,0,0.899-0.189,0.899-0.572v-0.168c0-0.092-0.011-0.215-0.034-0.369c0.066-0.158,0.181-0.236,0.344-0.236
		c0.252,0.037,0.378,0.148,0.378,0.334c0,0.07-0.023,0.16-0.069,0.271c0.026,0.156,0.039,0.279,0.039,0.371v0.104
		c0,0.627-0.336,0.941-1.007,0.941h-0.172c-0.362-0.045-0.603-0.068-0.723-0.068h-0.314c-1.147,0-1.883,0.18-2.208,0.541
		c-0.144,0-0.247,0.225-0.31,0.672v1.08l-0.034,0.064l0.207,0.068c0.043-0.021,0.077-0.033,0.103-0.033
		c0.164,0.023,0.255,0.033,0.275,0.033l0.172-0.033c0.164,0.023,0.301,0.033,0.413,0.033c0.124,0,0.228-0.01,0.314-0.033
		c0.399,0.045,1.031,0.068,1.898,0.068l0.069,0.035c0.023,0,0.034-0.012,0.034-0.035l0.246,0.035c0.344,0,0.516-0.068,0.516-0.203
		V78.1c-0.023-0.406-0.034-0.664-0.034-0.773c0.043-0.104,0.089-0.16,0.138-0.168h0.241c0.138,0.055,0.207,0.211,0.207,0.473v0.908
		c0,0.152,0.012,0.287,0.035,0.404c-0.023,0.117-0.035,0.252-0.035,0.404v0.607c-0.069,0.135-0.172,0.201-0.31,0.201
		c-0.126,0-0.218-0.055-0.275-0.166v-0.643c0-0.08,0.011-0.18,0.034-0.301c-0.017-0.068-0.063-0.115-0.138-0.139l-0.314,0.035
		l-0.413-0.035c-0.023,0-0.035,0.012-0.035,0.035l-0.241-0.035c-1.42-0.043-2.307-0.064-2.66-0.064h-0.138
		c-0.247,0-0.455,0.012-0.624,0.031c-1.061-0.025-1.648-0.059-1.76-0.1c-0.275,0.023-0.482,0.035-0.62,0.035l-0.486-0.035
		c-0.258,0.047-0.43,0.068-0.516,0.068c-0.075,0-0.132-0.01-0.172-0.033c-0.235,0.023-0.42,0.033-0.555,0.033h-0.378
		c-0.161,0-0.287,0.021-0.379,0.064c0.023,0.373,0.035,0.654,0.035,0.844v0.07c0,0.178-0.092,0.266-0.275,0.266h-0.035
		C124.201,80.088,124.121,80.033,124.078,79.92z M124.629,78.303h0.207c0.207,0,0.346,0.012,0.417,0.033
		c0.778-0.031,1.284-0.064,1.519-0.098c0.189,0.02,0.822,0.041,1.898,0.064c0.39,0,0.585-0.045,0.585-0.133
		c0.023-0.088,0.035-0.178,0.035-0.271v-0.135l-0.035-0.201l0.035-0.068c-0.164-0.555-0.427-1.016-0.792-1.383
		c-0.398-0.313-0.985-0.535-1.76-0.67h-0.107c-0.623,0-1.185,0.438-1.687,1.313C124.733,76.992,124.629,77.508,124.629,78.303z"/>
	<path d="M127.641,70.471c0.092-0.477,0.265-0.869,0.521-1.18c0.577-0.471,1.167-0.705,1.773-0.705
		c0.184-0.023,0.486-0.035,0.908-0.035c0.488,0,0.708,0.215,0.659,0.643c0.032,0.238,0.056,0.82,0.073,1.746
		c-0.023,0.889-0.047,1.373-0.073,1.451c0,0.135,0.07,0.201,0.211,0.201h0.314c0.651-0.033,1.244-0.236,1.777-0.607
		c0-0.037,0.069-0.148,0.207-0.334c0.123-0.188,0.216-0.445,0.28-0.775c-0.066-0.629-0.16-0.941-0.28-0.941
		c-0.126-0.236-0.304-0.426-0.534-0.568h-0.104c-0.166,0.135-0.295,0.201-0.387,0.201h-0.138c-0.393-0.117-0.589-0.285-0.589-0.502
		c0.06-0.225,0.141-0.336,0.241-0.336h0.104c0.055,0,0.102,0.012,0.142,0.033c0.04-0.021,0.086-0.033,0.138-0.033
		c0.393,0.043,0.694,0.121,0.903,0.236c0.146,0.141,0.29,0.293,0.431,0.461c0.35,0.393,0.525,0.74,0.525,1.045v0.469
		c0,0.023-0.012,0.035-0.035,0.035l0.035,0.068v0.1c-0.207,0.703-0.427,1.119-0.663,1.248c-0.557,0.447-1.38,0.67-2.47,0.67
		c-0.252,0-0.462,0.012-0.628,0.035c-0.112-0.023-0.262-0.035-0.452-0.035c-0.095,0-0.222,0.012-0.383,0.035
		c-0.74-0.08-1.11-0.17-1.11-0.271c-0.574-0.27-1.014-0.785-1.321-1.545C127.714,71.223,127.69,70.953,127.641,70.471z
		 M130.98,72.592V72.32l0.039-0.201c0-0.023-0.013-0.035-0.039-0.035c0.026-0.223,0.039-0.391,0.039-0.504v-0.537
		c0-0.068,0.011-0.104,0.034-0.104l-0.034-0.168v-0.705c0-0.697-0.059-1.047-0.177-1.047h-0.034l-1.11,0.035
		c-0.66,0.176-1.125,0.457-1.394,0.844l-0.172,0.572c0,0.984,0.462,1.656,1.386,2.018C129.655,72.535,130.143,72.568,130.98,72.592z
		"/>
	<path d="M127.637,64.83v-0.135c0.034-0.258,0.214-0.572,0.538-0.941c-0.201-0.318-0.301-0.711-0.301-1.18
		c0.046-0.27,0.158-0.404,0.335-0.404h0.138c0.278,0,0.435,0.168,0.469,0.504c0,0.27-0.112,0.404-0.336,0.404
		c-0.023,0.043-0.034,0.078-0.034,0.104c0.077,0.178,0.133,0.268,0.167,0.268h0.035c0.115-0.09,0.338-0.18,0.671-0.268
		c1.01,0,1.515,0.066,1.515,0.203c0.152,0,0.445,0.279,0.878,0.838c0.141,0.344,0.229,0.67,0.267,0.977l-0.03,0.203l0.03,0.201
		c0,0.047-0.067,0.35-0.202,0.908c0.152,0.494,0.366,0.74,0.641,0.74c0.187,0,0.366-0.145,0.538-0.434
		c0.046,0,0.08-0.383,0.103-1.145l-0.034-0.168c0.066-1.35,0.145-2.023,0.236-2.023c0.129-0.379,0.443-0.715,0.942-1.006
		c0.318-0.115,0.577-0.174,0.775-0.174c0.439,0.145,0.753,0.357,0.942,0.643c0.401,0.746,0.602,1.564,0.602,2.457v0.271
		c0,0.453-0.123,0.891-0.37,1.313c-0.356,0.424-0.659,0.637-0.908,0.637c0,0.021-0.067,0.033-0.202,0.033h-0.301
		c-0.373,0-0.777-0.178-1.213-0.537v-0.035h-0.065c-0.298,0.383-0.591,0.572-0.877,0.572c-0.089,0.023-0.168,0.035-0.237,0.035
		c-0.358,0-0.683-0.213-0.973-0.641c-0.278,0.27-0.592,0.428-0.942,0.473c-0.215,0.047-0.384,0.068-0.508,0.068
		c-0.686,0-1.314-0.293-1.885-0.877C127.771,66.281,127.637,65.652,127.637,64.83z M129.96,67.188
		c0.651-0.125,0.977-0.26,0.977-0.404c0.382-0.338,0.572-0.832,0.572-1.48v-0.068c0-0.629-0.337-1.156-1.011-1.584
		c-0.482-0.043-0.796-0.064-0.942-0.064c-0.516,0-0.987,0.359-1.411,1.076l-0.035,0.301c0,0.863,0.235,1.492,0.706,1.885
		C129.246,67.074,129.627,67.188,129.96,67.188z M134.806,67.287c0.608-0.15,0.912-0.316,0.912-0.504
		c0.155-0.195,0.232-0.666,0.232-1.416v-0.469c0-0.789-0.247-1.463-0.74-2.021c-0.146-0.045-0.326-0.076-0.538-0.1
		c-0.298,0.066-0.522,0.213-0.671,0.439c-0.315,0.34-0.473,1.025-0.473,2.053c0.023,0.193,0.034,0.361,0.034,0.502h-0.034
		c0.069,0.447,0.181,0.785,0.335,1.012C134.262,67.119,134.576,67.287,134.806,67.287z"/>
	<path d="M125.988,58.986c0-0.244,0.146-0.424,0.439-0.539l0.134-0.033c0.313,0.123,0.469,0.303,0.469,0.537v0.172
		c0,0.248-0.167,0.371-0.503,0.371C126.168,59.408,125.988,59.238,125.988,58.986z M127.637,58.986v-0.064
		c0.106-0.135,0.218-0.203,0.335-0.203c0.422,0,0.726,0.021,0.913,0.064c0.12-0.023,0.221-0.033,0.301-0.033h0.405
		c0.175,0,0.331,0.01,0.469,0.033l0.172-0.033c1.093,0.045,2.215,0.068,3.365,0.068l0.064,0.033
		c0.098-0.045,0.278-0.068,0.542-0.068h0.03l0.103-0.064l-0.034-0.168v-0.033c0-0.492-0.023-0.852-0.069-1.08
		c0-0.135,0.09-0.213,0.271-0.232c0.146,0,0.247,0.055,0.301,0.166v0.1c0,0.074-0.01,0.131-0.03,0.168
		c0.02,0.09,0.042,0.336,0.065,0.74c0,0.023-0.012,0.035-0.035,0.035l0.035,0.168v0.674c0,0.082,0.011,0.182,0.034,0.303
		c0,0.021-0.011,0.033-0.034,0.033l0.034,0.168v0.475c0,0.08-0.011,0.18-0.034,0.301c0.046,0.104,0.069,0.215,0.069,0.336
		c-0.029,0.27-0.129,0.404-0.301,0.404h-0.069c-0.158,0-0.237-0.057-0.237-0.168c0-0.27,0.012-0.752,0.034-1.445
		c-0.022-0.156-0.034-0.279-0.034-0.371h-0.133c-0.201,0-0.336,0.01-0.405,0.031c-0.195-0.021-0.363-0.031-0.503-0.031h-0.641
		c-0.092,0-0.182,0.01-0.271,0.031c-0.448-0.043-1.423-0.088-2.926-0.135c-0.161,0.023-0.363,0.035-0.606,0.035
		c-0.281-0.023-0.449-0.035-0.504-0.035c-0.043,0.023-0.077,0.035-0.103,0.035v0.201c0.046,0.664,0.069,1.021,0.069,1.076v0.643
		c-0.058,0.111-0.148,0.166-0.271,0.166c-0.129,0-0.229-0.055-0.301-0.166c0.023-0.279,0.034-0.426,0.034-0.439
		C127.74,60.043,127.706,59.471,127.637,58.986z"/>
	<path d="M127.435,54.188v-0.301c0-0.637,0.281-1.242,0.843-1.816c0.103-0.045,0.159-0.092,0.168-0.138l-0.203-0.034
		c-0.195,0.023-0.363,0.034-0.503,0.034c-0.112-0.04-0.167-0.129-0.167-0.267c0-0.166,0.145-0.257,0.435-0.271h0.034
		c0.101,0,0.168,0.012,0.202,0.035l1.011-0.069l0.237,0.034c0.376-0.022,0.667-0.034,0.874-0.034v0.034
		c0.115-0.045,0.204-0.068,0.267-0.068c0.12,0,0.222,0.067,0.305,0.202c0,0.227-0.09,0.34-0.271,0.34h-0.572
		c-0.568,0-0.959,0.112-1.175,0.336c-0.275,0.12-0.489,0.345-0.641,0.671c-0.224,0.33-0.335,0.689-0.335,1.08
		c0.112,0.605,0.313,1.064,0.602,1.377c0.275,0.285,0.568,0.453,0.878,0.508c0.583-0.1,0.874-0.223,0.874-0.369
		c0.27-0.201,0.405-0.494,0.405-0.879v-0.033c0-0.33-0.012-0.645-0.035-0.943c0-0.643,0.214-1.203,0.641-1.683
		c0.367-0.284,0.693-0.44,0.977-0.469h0.435c0.401,0,0.929,0.358,1.583,1.075c0.204,0.488,0.306,0.857,0.306,1.111
		c0,0.584-0.258,1.26-0.775,2.021c-0.066,0-0.123,0.045-0.172,0.135c0.023,0,0.034,0.01,0.034,0.033
		c0.078,0,0.269-0.023,0.572-0.068c0.135,0,0.214,0.09,0.237,0.271c0,0.201-0.224,0.301-0.671,0.301h-0.202
		c-0.318,0-0.555-0.012-0.71-0.035c-0.192,0.023-0.439,0.035-0.74,0.035h-0.637c-0.046,0-0.092-0.068-0.138-0.203
		c0-0.199,0.349-0.301,1.045-0.301c0.591,0,1.084-0.471,1.48-1.416c0.069-0.18,0.104-0.348,0.104-0.502v-0.336
		c0-0.48-0.249-0.907-0.745-1.283c-0.258-0.246-0.549-0.37-0.874-0.37c-0.304,0-0.641,0.271-1.011,0.81
		c-0.112,0.213-0.168,0.414-0.168,0.605v0.943c0,0.092,0.012,0.215,0.035,0.369c0,0.357-0.168,0.738-0.503,1.146
		c-0.255,0.313-0.648,0.469-1.179,0.469c0,0.021-0.023,0.033-0.069,0.033c-0.646,0-1.184-0.324-1.614-0.977
		C127.644,54.959,127.486,54.578,127.435,54.188z"/>
	<path d="M124.031,47.939l0.138-0.168c1.03,0.046,2.147,0.069,3.352,0.069v0.034c0.046-0.023,0.082-0.034,0.107-0.034v-0.202
		c-0.072-0.643-0.107-1.182-0.107-1.618l0.138-0.099h0.176c0.141,0,0.235,0.067,0.284,0.202l-0.039,0.301
		c0.049,0.691,0.073,1.141,0.073,1.347c0.078,0.046,0.148,0.069,0.211,0.069h0.314c0.184,0,0.308,0.011,0.374,0.034
		c0.261-0.023,0.495-0.034,0.702-0.034h1.403c0.353,0,0.634-0.023,0.843-0.069c0.333,0.046,0.567,0.069,0.702,0.069
		c0.427,0,0.872-0.258,1.334-0.774c0.141-0.238,0.222-0.497,0.245-0.775c-0.06-0.361-0.247-0.788-0.56-1.278
		c-0.367-0.315-0.918-0.474-1.652-0.474c0-0.023-0.07-0.034-0.211-0.034h-0.28c-0.14-0.012-0.21-0.044-0.21-0.099v-0.103
		c0-0.224,0.199-0.336,0.598-0.336h0.176c0.809,0.058,1.335,0.169,1.579,0.336c0.488,0.298,0.839,0.759,1.054,1.381
		c0.02,0.118,0.03,0.252,0.03,0.404v0.37c0,0.729-0.466,1.301-1.398,1.717l-0.633,0.133h-0.073c-0.078,0-0.136-0.01-0.177-0.03
		l-0.211,0.03c-0.304,0-0.62,0.012-0.946,0.035c-0.072,0-0.108-0.011-0.108-0.035c-0.275,0.023-0.475,0.035-0.598,0.035h-2.371
		c-0.048,0-0.083,0.135-0.103,0.404c0.026,0.798,0.049,1.291,0.069,1.48c0,0.135-0.093,0.214-0.28,0.237h-0.142
		c-0.138-0.052-0.207-0.187-0.207-0.405l0.03-0.404c-0.02-0.232-0.03-0.367-0.03-0.405c0.02-0.278,0.03-0.558,0.03-0.839
		l-0.104-0.069h-0.172c-0.023,0-0.415,0.011-1.175,0.034c-0.235-0.045-0.471-0.069-0.706-0.069h-0.594
		c-0.129,0-0.292-0.01-0.49-0.03c-0.04,0.02-0.099,0.03-0.177,0.03C124.101,48.266,124.031,48.143,124.031,47.939z"/>
	<path d="M127.736,42.87c0-0.169,0.011-0.786,0.034-1.851l-0.034-0.133c0.071-0.158,0.181-0.236,0.327-0.236
		c0.318,0.023,0.585,0.034,0.8,0.034h0.069c0.04-0.009,0.06-0.032,0.06-0.069c-0.574-0.832-0.907-1.472-0.999-1.919
		c-0.129-0.307-0.193-0.586-0.193-0.839c0-0.433,0.107-0.747,0.323-0.942c0-0.138,0.27-0.295,0.809-0.473
		c0.034-0.023,0.087-0.035,0.159-0.035c0.754,0.089,1.131,0.303,1.131,0.641c0.146,0.152,0.22,0.433,0.22,0.843
		c-0.124,0.425-0.349,0.637-0.676,0.637h-0.03c-0.367-0.046-0.551-0.237-0.551-0.572c0.038-0.313,0.157-0.469,0.357-0.469h0.323
		c-0.095-0.361-0.341-0.542-0.74-0.542c-0.419,0-0.7,0.19-0.843,0.572c0,0.189-0.01,0.291-0.03,0.305
		c0.195,0.967,0.583,1.786,1.162,2.458c0.161,0.27,0.311,0.404,0.452,0.404h0.646c0.112,0,0.208-0.011,0.288-0.034
		c1.013,0.066,1.927,0.099,2.741,0.099h0.387c0.029,0,0.062-0.033,0.099-0.099v-0.37c0-0.092-0.011-0.182-0.035-0.271l0.035-0.167
		c-0.023-0.189-0.035-0.334-0.035-0.435c0.078-0.069,0.154-0.104,0.229-0.104h0.025c0.121,0,0.197,0.044,0.229,0.133
		c0.022,2.02,0.056,3.03,0.099,3.03c0,0.218-0.086,0.353-0.258,0.404c-0.192,0-0.288-0.089-0.288-0.267v-1.248
		c0-0.032-0.033-0.064-0.099-0.099h-0.323c-0.146,0-0.275-0.011-0.387-0.034c-0.112,0.023-0.219,0.034-0.323,0.034
		c-0.169,0-0.706-0.034-1.609-0.103c-0.046,0-0.069,0.011-0.069,0.034l-0.387-0.034h-0.74c-0.221,0-0.393,0.011-0.516,0.034
		c-0.121-0.023-0.293-0.034-0.517-0.034h-0.74c-0.028,0-0.06,0.034-0.095,0.103v0.133c0,0.284-0.011,0.61-0.034,0.977
		c0.043,0.281,0.064,0.438,0.064,0.469c0,0.075-0.086,0.165-0.258,0.271C127.822,43.078,127.736,42.999,127.736,42.87z"/>
	<path d="M127.262,33.455c0.029-0.382,0.264-0.819,0.706-1.313c0.164-0.112,0.512-0.168,1.046-0.168h0.508
		c1.348,0,2.55,0.079,3.606,0.237c0.043-0.023,0.076-0.035,0.099-0.035l0.236,0.035c0.471-0.046,0.706-0.159,0.706-0.34
		c-0.043-0.135-0.167-0.202-0.37-0.202c-0.121,0.023-0.221,0.035-0.301,0.035c-0.092-0.095-0.138-0.184-0.138-0.267v-0.069
		c0-0.204,0.135-0.305,0.404-0.305c0.52,0.072,0.779,0.252,0.779,0.542c0.043,0,0.064,0.079,0.064,0.237v0.099
		c0,0.186-0.135,0.412-0.405,0.675v0.035c0.338,0.27,0.508,0.718,0.508,1.347c0,0.64-0.427,1.123-1.282,1.45
		c-0.376,0.066-0.702,0.099-0.977,0.099c-0.786-0.161-1.179-0.329-1.179-0.503c-0.124-0.092-0.349-0.598-0.676-1.519
		c-0.218-0.284-0.43-0.542-0.637-0.775c-0.275-0.158-0.624-0.236-1.046-0.236h-0.404c-0.419,0-0.688,0.337-0.809,1.011v0.069
		c0,0.499,0.214,0.892,0.641,1.179c0.275,0.066,0.466,0.099,0.572,0.099h0.064c0.121-0.078,0.246-0.245,0.375-0.503l0.232-0.069
		c0.315,0.069,0.473,0.215,0.473,0.439c0,0.278-0.213,0.469-0.641,0.572c-0.258,0.023-0.505,0.035-0.74,0.035
		c-0.301,0-0.616-0.146-0.942-0.439C127.42,34.449,127.262,33.965,127.262,33.455z M132.654,35.008h0.034
		c0.752,0,1.245-0.214,1.48-0.641c0.046-0.083,0.069-0.173,0.069-0.271v-0.035c0-0.631-0.337-1.08-1.011-1.347l-2.393-0.202h-0.237
		c-0.043,0-0.064,0.023-0.064,0.069c0.017,0.077,0.129,0.212,0.335,0.404c0.181,0.247,0.383,0.707,0.607,1.381
		C131.71,34.794,132.104,35.008,132.654,35.008z"/>
	<path d="M124.031,26.965c0-0.582,0.138-0.874,0.413-0.874c0.393,0.043,0.658,0.065,0.796,0.065h0.589
		c0.092,0,0.184-0.012,0.275-0.035c0.089,0.023,0.181,0.035,0.275,0.035h0.069c0.224,0,0.339-0.012,0.344-0.035
		c0.198,0.023,0.36,0.035,0.486,0.035h1.141c0.41,0,0.746-0.012,1.007-0.035c0.161,0.023,0.471,0.035,0.93,0.035h0.452l0.207,0.034
		c0.037-0.023,0.083-0.034,0.138-0.034c0.081,0,0.323,0.011,0.727,0.034l0.31-0.034l0.31,0.034c0.313-0.023,0.544-0.034,0.693-0.034
		v0.034l0.069-0.034h0.659c0.115,0,0.184-0.056,0.207-0.168c-0.023-0.043-0.035-0.076-0.035-0.099c0-0.224-0.011-0.493-0.034-0.809
		c0.023-0.292,0.08-0.439,0.172-0.439h0.035c0.187,0,0.28,0.158,0.28,0.474c0.02,0.399,0.03,0.836,0.03,1.313
		c0,0.089-0.057,0.168-0.172,0.237h-0.241c-0.255,0-0.383,0.033-0.383,0.099c0.439,0.344,0.658,0.716,0.658,1.115v0.03
		c0,0.758-0.162,1.252-0.486,1.485c0,0.101-0.46,0.326-1.381,0.676c-0.631,0.089-1.287,0.133-1.966,0.133
		c-0.846-0.101-1.446-0.269-1.799-0.503c-0.648-0.522-0.973-0.973-0.973-1.352v-0.37c0-0.456,0.174-0.759,0.521-0.908
		c0.272-0.227,0.433-0.34,0.482-0.34v-0.064c-0.786,0-1.995-0.023-3.627-0.069c-0.043,0.023-0.078,0.034-0.104,0.034
		c-0.089-0.023-0.181-0.034-0.275-0.034h-0.104c-0.071,0-0.119,0.112-0.142,0.335c0.023,0.229,0.034,0.41,0.034,0.542
		c-0.046,0.29-0.115,0.435-0.207,0.435h-0.034c-0.207,0-0.31-0.1-0.31-0.301C124.065,27.395,124.054,27.181,124.031,26.965z
		 M131.273,29.728c0.898-0.074,1.347-0.142,1.347-0.202c0.35,0,0.699-0.168,1.046-0.503c0.181-0.29,0.271-0.683,0.271-1.179
		c0-0.255-0.192-0.548-0.577-0.878c-0.301-0.201-0.637-0.301-1.007-0.301l-0.172,0.034c-0.539-0.023-0.965-0.034-1.278-0.034
		c-0.769,0.1-1.308,0.268-1.618,0.503c0,0.023-0.225,0.192-0.675,0.508c-0.066,0.115-0.099,0.227-0.099,0.335v0.404
		c0,0.255,0.303,0.57,0.908,0.942C129.897,29.539,130.516,29.662,131.273,29.728z"/>
	<path d="M127.774,21.29c0-1.23,0.526-2.015,1.579-2.354c0.218-0.158,0.902-0.236,2.053-0.236h0.37
		c1.44,0.187,2.305,0.489,2.595,0.908c0.318,0.189,0.542,0.526,0.671,1.011c0,0.055,0.034,0.234,0.103,0.538
		c-0.135,0.711-0.281,1.126-0.439,1.244c-0.232,0.479-0.692,0.86-1.381,1.145c-0.568,0.158-1.252,0.237-2.052,0.237
		c-0.867,0-1.562-0.179-2.087-0.538c-0.135,0-0.516-0.37-1.145-1.11C127.906,21.794,127.817,21.513,127.774,21.29z M131.071,23.243
		c1.013,0,1.743-0.09,2.19-0.271c0.316,0,0.719-0.326,1.209-0.977l0.236-0.805c-0.112-0.617-0.291-1.01-0.538-1.179
		c-0.207-0.27-0.679-0.483-1.416-0.642c-0.229-0.066-0.655-0.133-1.278-0.202l-0.202,0.035c-1.48,0-2.367,0.27-2.66,0.809
		c-0.247,0.373-0.37,0.631-0.37,0.774c0.023,0.161,0.035,0.25,0.035,0.267c-0.023,0.124-0.035,0.226-0.035,0.306
		c0.278,0.603,0.504,0.928,0.676,0.977c0.106,0.247,0.509,0.505,1.209,0.774C130.599,23.199,130.913,23.243,131.071,23.243z"/>
</g>
</svg>
